<svg width="6" height="10" viewBox="0 0 6 10" fill="none" xmlns="http://www.w3.org/2000/svg">
<path fill-rule="evenodd" clip-rule="evenodd" d="M0.292787 9.70704C0.105316 9.51951 0 9.26521 0 9.00004C0 8.73488 0.105316 8.48057 0.292787 8.29304L3.58579 5.00004L0.292787 1.70704C0.110629 1.51844 0.00983372 1.26584 0.0121121 1.00364C0.0143906 0.741443 0.11956 0.490631 0.304968 0.305223C0.490376 0.119815 0.741189 0.0146453 1.00339 0.0123669C1.26558 0.0100885 1.51818 0.110883 1.70679 0.293041L5.70679 4.29304C5.89426 4.48057 5.99957 4.73488 5.99957 5.00004C5.99957 5.26521 5.89426 5.51951 5.70679 5.70704L1.70679 9.70704C1.51926 9.89451 1.26495 9.99983 0.999786 9.99983C0.734622 9.99983 0.480314 9.89451 0.292787 9.70704Z" fill="currentColor"/>
</svg>
