<svg xmlns="http://www.w3.org/2000/svg" width="18.512" height="12.958" viewBox="0 0 18.512 12.958"><g transform="translate(0 -47.674)"><g transform="translate(0 47.674)"><g transform="translate(0 0)"><path fill="#140067" d="M17.586,143.021H.926a.926.926,0,0,0,0,1.851H17.586a.926.926,0,0,0,0-1.851Z" transform="translate(0 -137.467)"></path><path fill="#140067" d="M.926,49.525H17.586a.926.926,0,0,0,0-1.851H.926a.926.926,0,0,0,0,1.851Z" transform="translate(0 -47.674)"></path><path fill="#140067" d="M17.586,238.369H.926a.926.926,0,0,0,0,1.851H17.586a.926.926,0,0,0,0-1.851Z" transform="translate(0 -227.262)"></path></g></g></g></svg>